<mxfile host="app.diagrams.net" modified="2021-12-07T10:31:51.627Z" agent="5.0 (Macintosh; Intel Mac OS X 10_15_7) AppleWebKit/605.1.15 (KHTML, like Gecko) Version/15.1 Safari/605.1.15" etag="U53f7M1KfAXxQLjlifCm" version="15.9.1" type="github">
  <diagram id="9Kq6ldf7aVunNQvQ7S1J" name="Page-1">
    <mxGraphModel dx="946" dy="568" grid="1" gridSize="10" guides="1" tooltips="1" connect="1" arrows="1" fold="1" page="1" pageScale="1" pageWidth="827" pageHeight="1169" math="0" shadow="0">
      <root>
        <mxCell id="0" />
        <mxCell id="1" parent="0" />
        <mxCell id="76Pb_oQ4G_uTAEmpUkZL-21" value="" style="whiteSpace=wrap;html=1;aspect=fixed;" vertex="1" parent="1">
          <mxGeometry x="418" y="280" width="180" height="180" as="geometry" />
        </mxCell>
        <mxCell id="76Pb_oQ4G_uTAEmpUkZL-8" value="" style="rounded=0;whiteSpace=wrap;html=1;" vertex="1" parent="1">
          <mxGeometry x="60" y="10" width="420" height="230" as="geometry" />
        </mxCell>
        <mxCell id="76Pb_oQ4G_uTAEmpUkZL-16" value="" style="whiteSpace=wrap;html=1;aspect=fixed;" vertex="1" parent="1">
          <mxGeometry x="260" y="20" width="200" height="200" as="geometry" />
        </mxCell>
        <mxCell id="76Pb_oQ4G_uTAEmpUkZL-1" value="" style="shape=image;html=1;verticalAlign=top;verticalLabelPosition=bottom;labelBackgroundColor=#ffffff;imageAspect=0;aspect=fixed;image=https://cdn1.iconfinder.com/data/icons/fruit-136/64/Fruit_iconfree_Filled_Outline_raspberry-healthy-organic-food-fruit_icon-128.png" vertex="1" parent="1">
          <mxGeometry x="120" y="40" width="80" height="80" as="geometry" />
        </mxCell>
        <mxCell id="76Pb_oQ4G_uTAEmpUkZL-2" value="" style="shape=image;html=1;verticalAlign=top;verticalLabelPosition=bottom;labelBackgroundColor=#ffffff;imageAspect=0;aspect=fixed;image=https://cdn1.iconfinder.com/data/icons/fruit-136/64/Fruit_iconfree_Filled_Outline_raspberry-healthy-organic-food-fruit_icon-128.png" vertex="1" parent="1">
          <mxGeometry x="380" y="40" width="80" height="80" as="geometry" />
        </mxCell>
        <mxCell id="76Pb_oQ4G_uTAEmpUkZL-3" value="" style="sketch=0;points=[[0,0,0],[0.25,0,0],[0.5,0,0],[0.75,0,0],[1,0,0],[0,1,0],[0.25,1,0],[0.5,1,0],[0.75,1,0],[1,1,0],[0,0.25,0],[0,0.5,0],[0,0.75,0],[1,0.25,0],[1,0.5,0],[1,0.75,0]];outlineConnect=0;fontColor=#232F3E;gradientColor=#60A337;gradientDirection=north;fillColor=#277116;strokeColor=#ffffff;dashed=0;verticalLabelPosition=bottom;verticalAlign=top;align=center;html=1;fontSize=12;fontStyle=0;aspect=fixed;shape=mxgraph.aws4.resourceIcon;resIcon=mxgraph.aws4.s3;" vertex="1" parent="1">
          <mxGeometry x="680" y="51" width="78" height="78" as="geometry" />
        </mxCell>
        <mxCell id="76Pb_oQ4G_uTAEmpUkZL-4" value="" style="sketch=0;points=[[0,0,0],[0.25,0,0],[0.5,0,0],[0.75,0,0],[1,0,0],[0,1,0],[0.25,1,0],[0.5,1,0],[0.75,1,0],[1,1,0],[0,0.25,0],[0,0.5,0],[0,0.75,0],[1,0.25,0],[1,0.5,0],[1,0.75,0]];outlineConnect=0;fontColor=#232F3E;gradientColor=#FF4F8B;gradientDirection=north;fillColor=#BC1356;strokeColor=#ffffff;dashed=0;verticalLabelPosition=bottom;verticalAlign=top;align=center;html=1;fontSize=12;fontStyle=0;aspect=fixed;shape=mxgraph.aws4.resourceIcon;resIcon=mxgraph.aws4.sns;" vertex="1" parent="1">
          <mxGeometry x="680" y="310" width="78" height="78" as="geometry" />
        </mxCell>
        <mxCell id="76Pb_oQ4G_uTAEmpUkZL-5" value="" style="shape=image;html=1;verticalAlign=top;verticalLabelPosition=bottom;labelBackgroundColor=#ffffff;imageAspect=0;aspect=fixed;image=https://cdn4.iconfinder.com/data/icons/scripting-and-programming-languages/512/660277-Python_logo-128.png" vertex="1" parent="1">
          <mxGeometry x="290" y="58.25" width="128" height="128" as="geometry" />
        </mxCell>
        <mxCell id="76Pb_oQ4G_uTAEmpUkZL-6" value="" style="outlineConnect=0;dashed=0;verticalLabelPosition=bottom;verticalAlign=top;align=center;html=1;shape=mxgraph.aws3.mysql_db_instance;fillColor=#2E73B8;gradientColor=none;" vertex="1" parent="1">
          <mxGeometry x="100" y="90" width="60" height="64.5" as="geometry" />
        </mxCell>
        <mxCell id="76Pb_oQ4G_uTAEmpUkZL-11" value="" style="sketch=0;points=[[0,0,0],[0.25,0,0],[0.5,0,0],[0.75,0,0],[1,0,0],[0,1,0],[0.25,1,0],[0.5,1,0],[0.75,1,0],[1,1,0],[0,0.25,0],[0,0.5,0],[0,0.75,0],[1,0.25,0],[1,0.5,0],[1,0.75,0]];outlineConnect=0;fontColor=#232F3E;gradientColor=#F78E04;gradientDirection=north;fillColor=#D05C17;strokeColor=#ffffff;dashed=0;verticalLabelPosition=bottom;verticalAlign=top;align=center;html=1;fontSize=12;fontStyle=0;aspect=fixed;shape=mxgraph.aws4.resourceIcon;resIcon=mxgraph.aws4.ec2;" vertex="1" parent="1">
          <mxGeometry x="469" y="350" width="78" height="78" as="geometry" />
        </mxCell>
        <mxCell id="76Pb_oQ4G_uTAEmpUkZL-12" value="" style="shape=flexArrow;endArrow=classic;startArrow=classic;html=1;rounded=0;" edge="1" parent="1">
          <mxGeometry width="100" height="100" relative="1" as="geometry">
            <mxPoint x="194" y="80" as="sourcePoint" />
            <mxPoint x="384" y="80" as="targetPoint" />
          </mxGeometry>
        </mxCell>
        <mxCell id="76Pb_oQ4G_uTAEmpUkZL-13" value="Source data database" style="text;html=1;align=center;verticalAlign=middle;resizable=0;points=[];autosize=1;strokeColor=none;fillColor=none;" vertex="1" parent="1">
          <mxGeometry x="95" y="20" width="130" height="20" as="geometry" />
        </mxCell>
        <mxCell id="76Pb_oQ4G_uTAEmpUkZL-14" value="Computational server" style="text;html=1;align=center;verticalAlign=middle;resizable=0;points=[];autosize=1;strokeColor=none;fillColor=none;" vertex="1" parent="1">
          <mxGeometry x="330" y="20" width="130" height="20" as="geometry" />
        </mxCell>
        <mxCell id="76Pb_oQ4G_uTAEmpUkZL-15" value="Investigate market and report opportunities" style="shape=step;perimeter=stepPerimeter;whiteSpace=wrap;html=1;fixedSize=1;" vertex="1" parent="1">
          <mxGeometry x="480" y="70" width="200" height="50" as="geometry" />
        </mxCell>
        <mxCell id="76Pb_oQ4G_uTAEmpUkZL-17" value="Daily process schedules via crontab" style="text;html=1;align=center;verticalAlign=middle;resizable=0;points=[];autosize=1;strokeColor=none;fillColor=none;" vertex="1" parent="1">
          <mxGeometry x="256" y="180" width="210" height="20" as="geometry" />
        </mxCell>
        <mxCell id="76Pb_oQ4G_uTAEmpUkZL-19" value="" style="outlineConnect=0;dashed=0;verticalLabelPosition=bottom;verticalAlign=top;align=center;html=1;shape=mxgraph.aws3.lambda_function;fillColor=#F58534;gradientColor=none;" vertex="1" parent="1">
          <mxGeometry x="730" y="180" width="69" height="72" as="geometry" />
        </mxCell>
        <mxCell id="76Pb_oQ4G_uTAEmpUkZL-20" value="" style="shape=flexArrow;endArrow=classic;html=1;rounded=0;entryX=0.5;entryY=0;entryDx=0;entryDy=0;entryPerimeter=0;" edge="1" parent="1" target="76Pb_oQ4G_uTAEmpUkZL-4">
          <mxGeometry width="50" height="50" relative="1" as="geometry">
            <mxPoint x="718" y="129" as="sourcePoint" />
            <mxPoint x="768" y="79" as="targetPoint" />
          </mxGeometry>
        </mxCell>
        <mxCell id="76Pb_oQ4G_uTAEmpUkZL-22" value="Dash frontend" style="text;html=1;align=center;verticalAlign=middle;resizable=0;points=[];autosize=1;strokeColor=none;fillColor=none;" vertex="1" parent="1">
          <mxGeometry x="463" y="300" width="90" height="20" as="geometry" />
        </mxCell>
        <mxCell id="76Pb_oQ4G_uTAEmpUkZL-23" value="" style="shape=flexArrow;endArrow=classic;startArrow=classic;html=1;rounded=0;exitX=0.5;exitY=0;exitDx=0;exitDy=0;" edge="1" parent="1" source="76Pb_oQ4G_uTAEmpUkZL-21">
          <mxGeometry width="100" height="100" relative="1" as="geometry">
            <mxPoint x="590" y="229" as="sourcePoint" />
            <mxPoint x="690" y="129" as="targetPoint" />
          </mxGeometry>
        </mxCell>
      </root>
    </mxGraphModel>
  </diagram>
</mxfile>
